<svg width="975" height="975" viewBox="0 0 975 975" fill="none" xmlns="http://www.w3.org/2000/svg">
<g clip-path="url(#clip0_1_27)">
<rect width="975" height="975" fill="white"/>
<rect width="975" height="975" fill="#438EFF"/>
<path d="M373.5 219C326.297 219 288 257.297 288 304.5V532.5C288 575.25 319.35 610.608 360.23 617.02L319.261 657.989C313.027 664.223 317.48 675 326.297 675H361.655C369.225 675 376.439 671.972 381.783 666.628L430.5 618H544.5L593.128 666.628C598.472 671.972 605.686 675 613.256 675H648.703C657.609 675 662.062 664.223 655.739 657.989L614.77 617.02C655.739 610.697 687 575.25 687 532.5V304.5C687 257.297 648.703 219 601.5 219H373.5ZM345 333C345 317.236 357.736 304.5 373.5 304.5H444.75C460.514 304.5 473.25 317.236 473.25 333V418.5C473.25 434.264 460.514 447 444.75 447H373.5C357.736 447 345 434.264 345 418.5V333ZM530.25 304.5H601.5C617.264 304.5 630 317.236 630 333V418.5C630 434.264 617.264 447 601.5 447H530.25C514.486 447 501.75 434.264 501.75 418.5V333C501.75 317.236 514.486 304.5 530.25 304.5ZM345 532.5C345 524.941 348.003 517.692 353.347 512.347C358.692 507.003 365.941 504 373.5 504C381.059 504 388.308 507.003 393.653 512.347C398.997 517.692 402 524.941 402 532.5C402 540.059 398.997 547.308 393.653 552.653C388.308 557.997 381.059 561 373.5 561C365.941 561 358.692 557.997 353.347 552.653C348.003 547.308 345 540.059 345 532.5ZM601.5 504C609.059 504 616.308 507.003 621.653 512.347C626.997 517.692 630 524.941 630 532.5C630 540.059 626.997 547.308 621.653 552.653C616.308 557.997 609.059 561 601.5 561C593.941 561 586.692 557.997 581.347 552.653C576.003 547.308 573 540.059 573 532.5C573 524.941 576.003 517.692 581.347 512.347C586.692 507.003 593.941 504 601.5 504Z" fill="#073F92"/>
<path d="M63 1028.5L381.5 669.5L317 661.5L-48.5 1028.5H63Z" fill="#073F92"/>
<path d="M944.209 1058.5L611 676.5L662 668L1059.5 1058.5H944.209Z" fill="#073F92"/>
<path d="M299.9 593C311.46 593 320.8 602.321 320.8 613.857V780.714H467.1V676.429C467.1 664.892 476.44 655.571 488 655.571H634.3C668.916 655.571 697 683.598 697 718.143V864.143C697 875.679 687.66 885 676.1 885C664.54 885 655.2 875.679 655.2 864.143V843.286H508.9H488H320.8V864.143C320.8 875.679 311.46 885 299.9 885C288.34 885 279 875.679 279 864.143V613.857C279 602.321 288.34 593 299.9 593ZM393.95 655.571C407.808 655.571 421.098 661.065 430.896 670.844C440.695 680.622 446.2 693.885 446.2 707.714C446.2 721.543 440.695 734.806 430.896 744.585C421.098 754.364 407.808 759.857 393.95 759.857C380.092 759.857 366.802 754.364 357.004 744.585C347.205 734.806 341.7 721.543 341.7 707.714C341.7 693.885 347.205 680.622 357.004 670.844C366.802 661.065 380.092 655.571 393.95 655.571Z" fill="#A4C9FF"/>
</g>
<defs>
<clipPath id="clip0_1_27">
<rect width="975" height="975" fill="white"/>
</clipPath>
</defs>
</svg>
